<svg xmlns="http://www.w3.org/2000/svg" width="36" height="33" viewBox="0 0 36 33" fill="none"><path d="M12.5 2.5498C13.75 2.5498 14.8125 2.9873 15.6875 3.8623C16.5625 4.7373 17 5.7998 17 7.0498V19.0498C17 22.2165 15.875 24.9248 13.625 27.1748C11.375 29.4248 8.66667 30.5498 5.5 30.5498H5C4.16667 30.5498 3.45833 30.2581 2.875 29.6748C2.29167 29.0915 2 28.3831 2 27.5498V24.5498C2 23.7165 2.29167 23.0081 2.875 22.4248C3.45833 21.8415 4.16667 21.5498 5 21.5498H5.5C6.20833 21.5498 6.80208 21.3102 7.28125 20.8311C7.76042 20.3519 8 19.7581 8 19.0498V18.5498H4.5C3.25 18.5498 2.1875 18.1123 1.3125 17.2373C0.4375 16.3623 0 15.2998 0 14.0498V7.0498C0 5.7998 0.4375 4.7373 1.3125 3.8623C2.1875 2.9873 3.25 2.5498 4.5 2.5498H12.5ZM14 19.0498V7.0498C14 6.63314 13.8542 6.27897 13.5625 5.9873C13.2708 5.69564 12.9167 5.5498 12.5 5.5498H4.5C4.08333 5.5498 3.72917 5.69564 3.4375 5.9873C3.14583 6.27897 3 6.63314 3 7.0498V14.0498C3 14.4665 3.14583 14.8206 3.4375 15.1123C3.72917 15.404 4.08333 15.5498 4.5 15.5498H11V19.0498C11 20.5498 10.4583 21.8415 9.375 22.9248C8.29167 24.0081 7 24.5498 5.5 24.5498H5V27.5498H5.5C7.83333 27.5498 9.83333 26.7165 11.5 25.0498C13.1667 23.3831 14 21.3831 14 19.0498ZM31.5 2.5498C32.75 2.5498 33.8125 2.9873 34.6875 3.8623C35.5625 4.7373 36 5.7998 36 7.0498V19.0498C36 22.2165 34.875 24.9248 32.625 27.1748C30.375 29.4248 27.6667 30.5498 24.5 30.5498H24C23.1667 30.5498 22.4583 30.2581 21.875 29.6748C21.2917 29.0915 21 28.3831 21 27.5498V24.5498C21 23.7165 21.2917 23.0081 21.875 22.4248C22.4583 21.8415 23.1667 21.5498 24 21.5498H24.5C25.2083 21.5498 25.8021 21.3102 26.2812 20.8311C26.7604 20.3519 27 19.7581 27 19.0498V18.5498H23.5C22.25 18.5498 21.1875 18.1123 20.3125 17.2373C19.4375 16.3623 19 15.2998 19 14.0498V7.0498C19 5.7998 19.4375 4.7373 20.3125 3.8623C21.1875 2.9873 22.25 2.5498 23.5 2.5498H31.5ZM33 19.0498V7.0498C33 6.63314 32.8542 6.27897 32.5625 5.9873C32.2708 5.69564 31.9167 5.5498 31.5 5.5498H23.5C23.0833 5.5498 22.7292 5.69564 22.4375 5.9873C22.1458 6.27897 22 6.63314 22 7.0498V14.0498C22 14.4665 22.1458 14.8206 22.4375 15.1123C22.7292 15.404 23.0833 15.5498 23.5 15.5498H30V19.0498C30 20.5498 29.4583 21.8415 28.375 22.9248C27.2917 24.0081 26 24.5498 24.5 24.5498H24V27.5498H24.5C26.8333 27.5498 28.8333 26.7165 30.5 25.0498C32.1667 23.3831 33 21.3831 33 19.0498Z" fill="#8C8C8C"></path></svg>