<svg xmlns="http://www.w3.org/2000/svg" width="33" height="28" viewBox="0 0 33 28" fill="none"><rect x="0.5" y="1.64014" width="25" height="25" rx="12.5" stroke="#031220" stroke-opacity="0.08"></rect><path d="M15.0175 16.0464C16.6074 16.0464 17.9179 17.3569 17.9179 18.9468V19.4839C17.9179 20.064 17.4453 20.5151 16.8867 20.5151H9.32418C8.7441 20.5151 8.29293 20.064 8.29293 19.4839V18.9468C8.29293 17.3569 9.58199 16.0464 11.1718 16.0464C11.7949 16.0464 12.0742 16.3901 13.1054 16.3901C14.1152 16.3901 14.3945 16.0464 15.0175 16.0464ZM16.8867 19.4839V18.9468C16.8867 17.9155 16.0488 17.0776 15.0175 17.0776C14.6953 17.0776 14.2011 17.4214 13.1054 17.4214C11.9882 17.4214 11.4941 17.0776 11.1718 17.0776C10.1406 17.0776 9.32418 17.9155 9.32418 18.9468V19.4839H16.8867ZM13.1054 15.7026C11.3867 15.7026 10.0117 14.3276 10.0117 12.6089C10.0117 10.9116 11.3867 9.51514 13.1054 9.51514C14.8027 9.51514 16.1992 10.9116 16.1992 12.6089C16.1992 14.3276 14.8027 15.7026 13.1054 15.7026ZM13.1054 10.5464C11.9668 10.5464 11.0429 11.4917 11.0429 12.6089C11.0429 13.7476 11.9668 14.6714 13.1054 14.6714C14.2226 14.6714 15.1679 13.7476 15.1679 12.6089C15.1679 11.4917 14.2226 10.5464 13.1054 10.5464Z" fill="#49535B"></path></svg>