<svg xmlns="http://www.w3.org/2000/svg" width="159" height="28" viewBox="0 0 159 28" fill="none"><rect x="0.5" y="1.64014" width="25" height="25" rx="12.5" stroke="#031220" stroke-opacity="0.08"></rect><path d="M15.0171 16.0464C16.6069 16.0464 17.9174 17.3569 17.9174 18.9468V19.4839C17.9174 20.064 17.4448 20.5151 16.8862 20.5151H9.32369C8.74361 20.5151 8.29244 20.064 8.29244 19.4839V18.9468C8.29244 17.3569 9.5815 16.0464 11.1713 16.0464C11.7944 16.0464 12.0737 16.3901 13.1049 16.3901C14.1147 16.3901 14.394 16.0464 15.0171 16.0464ZM16.8862 19.4839V18.9468C16.8862 17.9155 16.0483 17.0776 15.0171 17.0776C14.6948 17.0776 14.2006 17.4214 13.1049 17.4214C11.9878 17.4214 11.4936 17.0776 11.1713 17.0776C10.1401 17.0776 9.32369 17.9155 9.32369 18.9468V19.4839H16.8862ZM13.1049 15.7026C11.3862 15.7026 10.0112 14.3276 10.0112 12.6089C10.0112 10.9116 11.3862 9.51514 13.1049 9.51514C14.8022 9.51514 16.1987 10.9116 16.1987 12.6089C16.1987 14.3276 14.8022 15.7026 13.1049 15.7026ZM13.1049 10.5464C11.9663 10.5464 11.0424 11.4917 11.0424 12.6089C11.0424 13.7476 11.9663 14.6714 13.1049 14.6714C14.2221 14.6714 15.1674 13.7476 15.1674 12.6089C15.1674 11.4917 14.2221 10.5464 13.1049 10.5464Z" fill="#49535B"></path></svg>