<svg xmlns="http://www.w3.org/2000/svg" width="18" height="18" viewBox="0 0 18 18" fill="none"><g clip-path="url(#clip0_155_7088)"><path d="M16.4997 12.675V14.925C16.4997 15.75 15.8247 16.425 14.9997 16.425C14.9247 16.425 14.9247 16.425 14.8497 16.425C12.5247 16.2 10.3497 15.375 8.39969 14.1C6.59969 12.975 5.02469 11.4 3.89969 9.6C2.62469 7.65 1.87469 5.4 1.57469 3.075C1.49969 2.325 2.09969 1.575 2.92469 1.5C2.99969 1.5 3.07469 1.5 3.07469 1.5H5.32469C6.07469 1.5 6.74969 2.025 6.82469 2.775C6.89969 3.525 7.12469 4.2 7.34969 4.875C7.57469 5.4 7.42469 6.075 7.04969 6.45L6.07469 7.425C7.12469 9.3 8.69969 10.875 10.5747 11.925L11.5497 10.95C11.9997 10.575 12.5997 10.425 13.1247 10.65C13.7997 10.875 14.4747 11.1 15.2247 11.175C15.9747 11.25 16.4997 11.925 16.4997 12.675Z" stroke="#2B80FF" stroke-width="1.5" stroke-linecap="round" stroke-linejoin="round"></path></g><defs><clipPath id="clip0_155_7088"><rect width="18" height="18" fill="white"></rect></clipPath></defs></svg>