<svg xmlns="http://www.w3.org/2000/svg" width="14" height="16" viewBox="0 0 14 16" fill="none"><path d="M12.3496 2.30005C13.1113 2.30005 13.7559 2.94458 13.7559 3.7063V14.0188C13.7559 14.8098 13.1113 15.425 12.3496 15.425H2.03711C1.24609 15.425 0.630859 14.8098 0.630859 14.0188V3.7063C0.630859 2.94458 1.24609 2.30005 2.03711 2.30005H3.44336V0.776611C3.44336 0.60083 3.58984 0.425049 3.79492 0.425049H4.9668C5.14258 0.425049 5.31836 0.60083 5.31836 0.776611V2.30005H9.06836V0.776611C9.06836 0.60083 9.21484 0.425049 9.41992 0.425049H10.5918C10.7676 0.425049 10.9434 0.60083 10.9434 0.776611V2.30005H12.3496ZM12.1738 14.0188C12.2617 14.0188 12.3496 13.9602 12.3496 13.843V5.11255H2.03711V13.843C2.03711 13.9602 2.0957 14.0188 2.21289 14.0188H12.1738ZM10.6211 8.15942L6.43164 12.2903C6.31445 12.4368 6.08008 12.4368 5.93359 12.2903L3.73633 10.0637C3.61914 9.94653 3.61914 9.71216 3.73633 9.56567L4.41016 8.92114C4.55664 8.77466 4.76172 8.77466 4.9082 8.92114L6.19727 10.2102L9.44922 6.98755C9.5957 6.84106 9.83008 6.84106 9.94727 6.98755L10.6211 7.66138C10.7383 7.80786 10.7383 8.01294 10.6211 8.15942Z" fill="#8C8C8C"></path></svg>