<svg xmlns="http://www.w3.org/2000/svg" width="14" height="16" viewBox="0 0 14 16" fill="none"><path d="M9.16992 9.3313C11.3379 9.3313 13.125 11.1184 13.125 13.2864V14.0188C13.125 14.8098 12.4805 15.425 11.7188 15.425H1.40625C0.615234 15.425 0 14.8098 0 14.0188V13.2864C0 11.1184 1.75781 9.3313 3.92578 9.3313C4.77539 9.3313 5.15625 9.80005 6.5625 9.80005C7.93945 9.80005 8.32031 9.3313 9.16992 9.3313ZM11.7188 14.0188V13.2864C11.7188 11.8801 10.5762 10.7375 9.16992 10.7375C8.73047 10.7375 8.05664 11.2063 6.5625 11.2063C5.03906 11.2063 4.36523 10.7375 3.92578 10.7375C2.51953 10.7375 1.40625 11.8801 1.40625 13.2864V14.0188H11.7188ZM6.5625 8.86255C4.21875 8.86255 2.34375 6.98755 2.34375 4.6438C2.34375 2.32935 4.21875 0.425049 6.5625 0.425049C8.87695 0.425049 10.7812 2.32935 10.7812 4.6438C10.7812 6.98755 8.87695 8.86255 6.5625 8.86255ZM6.5625 1.8313C5.00977 1.8313 3.75 3.12036 3.75 4.6438C3.75 6.19653 5.00977 7.4563 6.5625 7.4563C8.08594 7.4563 9.375 6.19653 9.375 4.6438C9.375 3.12036 8.08594 1.8313 6.5625 1.8313Z" fill="#8C8C8C"></path></svg>